<svg width="273" height="99" viewBox="0 0 273 99" fill="none" xmlns="http://www.w3.org/2000/svg">
<path d="M70.44 0.199997V17.48H17.88V40.52H0.48V0.199997H70.44ZM0.48 57.8H17.88V81.68H70.44V98.96H0.48V57.8ZM17.88 40.52H58.44V57.8H17.88V40.52ZM107.646 17.48V49.16H90.2456V0.199997H146.286V17.48H107.646ZM163.566 17.48V49.16H146.286V17.48H163.566ZM146.286 66.44H107.646V49.16H146.286V66.44ZM107.646 66.44V98.96H90.2456V66.44H107.646ZM255.128 17.48H200.528V0.199997H255.128V17.48ZM255.128 17.48H272.408V81.68H255.128V17.48ZM183.248 81.68V17.48H200.528V81.68H183.248ZM255.128 81.68V98.96H200.528V81.68H255.128Z" fill="black"/>
</svg>
